<?xml version="1.0" standalone="no"?>
<!DOCTYPE svg PUBLIC "-//W3C//DTD SVG 20010904//EN"
 "http://www.w3.org/TR/2001/REC-SVG-20010904/DTD/svg10.dtd">
<svg version="1.0" xmlns="http://www.w3.org/2000/svg"
 width="700.000000pt" height="700.000000pt" viewBox="0 0 700.000000 700.000000"
 preserveAspectRatio="xMidYMid meet">
<metadata>
Created by potrace 1.14, written by Peter Selinger 2001-2017
</metadata>
<g transform="translate(0.000000,700.000000) scale(0.100000,-0.100000)"
fill="#000000" stroke="none">
<path d="M3500 5939 c-469 -60 -870 -307 -1131 -693 -114 -169 -194 -363 -241
-583 l-23 -108 -3 -1752 -2 -1753 485 0 485 0 0 950 0 950 590 0 c325 0 590 2
590 4 0 2 63 205 140 451 77 245 140 450 140 456 0 5 -280 9 -731 9 l-731 0 5
278 c3 216 8 290 21 337 61 222 221 385 460 468 l91 32 643 3 c353 2 642 5
642 7 0 3 59 213 130 468 72 256 130 469 130 476 0 13 -1584 14 -1690 0z"/>
</g>
</svg>
